<svg xmlns="http://www.w3.org/2000/svg" xmlns:xlink="http://www.w3.org/1999/xlink" version="1.1" x="0px" y="0px" viewBox="0 0 100 125" style="enable-background:new 0 0 100 100;" xml:space="preserve"><style type="text/css">
	.st0{fill:none;stroke:#000000;stroke-width:2;stroke-linecap:round;stroke-linejoin:round;stroke-miterlimit:10;}
	.st1{fill:none;stroke:#000000;stroke-width:2;stroke-miterlimit:10;}
</style><path d="M84.9,55.8c0-0.5-0.4-0.9-0.9-1c-2.9-0.3-4.6,2.2-5.5,4c-3.4-3.8-8.4-4-8.6-4c0,0,0,0,0,0c-5.4,0-7.9,3.8-8.4,5.8  c-0.1,0.2,0,0.4,0,0.6c1.6,4.6,5.4,5.8,7.8,5.8c0.3,0,0.5,0,0.8,0c0.6,0,5.3-0.4,8.5-4c0.9,1.8,2.6,4.3,5.5,4c0.5,0,0.9-0.5,0.9-1  c0-0.4,0-3.3-1.4-5.1C84.9,59,84.9,56.1,84.9,55.8z M69.8,64.9c-0.2,0-4.5,0.5-6.3-4.1c0.4-1,2-4,6.4-4c0,0,0,0,0,0  c0.1,0,5,0.2,7.7,4C74.8,64.7,69.9,64.9,69.8,64.9z M81.5,61.7c0.8,0.6,1.2,2,1.3,3.1c-1.7-0.6-2.7-3.1-3-3.9c0.3-0.8,1.3-3.3,3-3.9  c-0.1,1.1-0.5,2.5-1.3,3.1c-0.3,0.2-0.4,0.5-0.4,0.8S81.3,61.5,81.5,61.7z"/><circle cx="65.9" cy="59.7" r="0.6"/><path d="M78.1,71.1c0-0.5-0.4-0.9-0.9-1c-3.8-0.4-6,3.1-7,5.4c-4.2-5.1-10.8-5.4-11.1-5.4c0,0,0,0,0,0c-8.4,0-10.5,7.1-10.6,7.2  c-0.1,0.2,0,0.4,0,0.6c2.3,6.5,7.8,7.2,9.9,7.2c0.4,0,0.6,0,0.8,0c0.6,0,7-0.4,11.1-5.4c1,2.3,3.2,5.8,7,5.4c0.5,0,0.9-0.5,0.9-1  c0-0.2,0.1-4.2-1.9-6.5C78.2,75.3,78.1,71.3,78.1,71.1z M59,83.1c-0.2,0-6,0.7-8.5-5.5c0.4-1.2,2.5-5.5,8.5-5.5c0,0,0,0,0,0  c0.1,0,6.7,0.3,10.2,5.5C65.7,82.8,59.1,83.1,59,83.1z M74.2,78.4c1.3,0.9,1.8,3.1,1.9,4.6c-2.7-0.5-4.2-4.4-4.5-5.4  c0.4-1.1,1.9-4.9,4.5-5.4c-0.1,1.5-0.6,3.7-1.9,4.6c-0.3,0.2-0.4,0.5-0.4,0.8S73.9,78.2,74.2,78.4z"/><circle cx="53.9" cy="76.2" r="0.7"/><path d="M21.8,24.8c1.5,1.8,3.2,3.8,6.6,3.8s5.1-2,6.6-3.8c1.4-1.7,2.6-3.1,5-3.1c2.4,0,3.6,1.4,5,3.1c1.3,1.6,2.9,3.4,5.6,3.8v18.8  c-1.2,0.4-2.1,1.6-2.1,2.9s0.9,2.5,2.1,2.9v5.6c0,3.7-3,6.8-6.8,6.8c-3.7,0-6.8-3-6.8-6.8v-1.4l0.6,0.6c0.4,0.4,1,0.4,1.4,0  s0.4-1,0-1.4L37,54.6v-1.3l2.2,2.2c0.4,0.4,1,0.4,1.4,0s0.4-1,0-1.4l-4-4c-0.4-0.4-1-0.4-1.4,0l-3.9,4c-0.4,0.4-0.4,1,0,1.4  c0.2,0.2,0.5,0.3,0.7,0.3s0.5-0.1,0.7-0.3l2.2-2.2v1.3l-2.1,2.1c-0.4,0.4-0.4,1,0,1.4c0.2,0.2,0.5,0.3,0.7,0.3s0.5-0.1,0.7-0.3  l0.6-0.6v1.4c0,4.9,3.9,8.8,8.8,8.8c4.6,0,8.4-3.6,8.8-8.1c0-0.1,0-0.1,0-0.2v-6.1c1.2-0.4,2.1-1.6,2.1-2.9c0-1.4-0.9-2.5-2.1-2.9  V28.6c2.7-0.4,4.2-2.1,5.5-3.8c1.4-1.7,2.6-3.1,5-3.1c2.4,0,3.6,1.4,5,3.1c1.5,1.8,3.2,3.8,6.6,3.8c3.4,0,5.1-2,6.6-3.8  c1.4-1.7,2.6-3.1,5-3.1c0.6,0,1-0.4,1-1s-0.4-1-1-1c-3.4,0-5.1,2-6.6,3.8c-1.4,1.7-2.6,3.1-5,3.1s-3.6-1.4-5-3.1  c-1.5-1.8-3.2-3.8-6.6-3.8c-3.4,0-5.1,2-6.6,3.8c-1.2,1.4-2.2,2.7-4,3v-5.6c2.7-0.4,4.2-2.1,5.5-3.8c1.4-1.7,2.6-3.1,5-3.1  c2.4,0,3.6,1.4,5,3.1c1.5,1.8,3.2,3.8,6.6,3.8c3.4,0,5.1-2,6.6-3.8c1.4-1.7,2.6-3.1,5-3.1c0.6,0,1-0.4,1-1s-0.4-1-1-1  c-3.4,0-5.1,2-6.6,3.8c-1.4,1.7-2.6,3.1-5,3.1s-3.6-1.4-5-3.1c-1.5-1.8-3.2-3.8-6.6-3.8c-3.4,0-5.1,2-6.6,3.8c-1.2,1.4-2.2,2.7-4,3  V9.5c0-0.6-0.4-1-1-1s-1,0.4-1,1v9.4c-1.8-0.3-2.8-1.6-4-3c-1.5-1.8-3.2-3.8-6.6-3.8c-3.4,0-5.1,2-6.6,3.8c-1.4,1.7-2.6,3.1-5,3.1  s-3.6-1.4-5-3.1c-1.5-1.8-3.2-3.8-6.6-3.8c-0.6,0-1,0.4-1,1s0.4,1,1,1c2.4,0,3.6,1.4,5,3.1C23.3,19,25,21,28.4,21s5.1-2,6.6-3.8  c1.4-1.7,2.6-3.1,5-3.1c2.4,0,3.6,1.4,5,3.1c1.3,1.6,2.9,3.4,5.6,3.8v5.6c-1.8-0.3-2.8-1.6-4-3c-1.5-1.8-3.2-3.8-6.6-3.8  c-3.4,0-5.1,2-6.6,3.8c-1.4,1.7-2.6,3.1-5,3.1s-3.6-1.4-5-3.1c-1.5-1.8-3.2-3.8-6.6-3.8c-0.6,0-1,0.4-1,1s0.4,1,1,1  C19.3,21.7,20.5,23.1,21.8,24.8z"/><text x="0" y="115" fill="#000000" font-size="5px" font-weight="bold" font-family="'Helvetica Neue', Helvetica, Arial-Unicode, Arial, Sans-serif">Created by Made by Made</text><text x="0" y="120" fill="#000000" font-size="5px" font-weight="bold" font-family="'Helvetica Neue', Helvetica, Arial-Unicode, Arial, Sans-serif">from the Noun Project</text></svg>