<svg xmlns="http://www.w3.org/2000/svg" xmlns:xlink="http://www.w3.org/1999/xlink" version="1.1" x="0px" y="0px" viewBox="0 0 128 160" style="enable-background:new 0 0 128 128;" xml:space="preserve"><path d="M128.196-428.251h-9.382c-1.104,0-2,0.896-2,2v41.476c0,1.104,0.896,2,2,2h9.382c1.104,0,2-0.896,2-2v-41.476  C130.196-427.355,129.301-428.251,128.196-428.251z M126.196-386.775h-5.382v-37.476h5.382V-386.775z"/><g><path d="M90.839,81.209c-0.25-1.076-1.329-1.744-2.401-1.495c-1.076,0.25-1.745,1.326-1.495,2.401l7.038,30.258l-15.74-6.82   c-1.014-0.438-2.191,0.026-2.63,1.04c-0.439,1.014,0.026,2.191,1.04,2.63l1.215,0.526l-6.868,8.066l-5.394-19.924l1.929-8.293   c0.25-1.076-0.419-2.151-1.495-2.401c-1.074-0.248-2.151,0.419-2.401,1.495l-6.744,28.993l-6.757-7.936l1.215-0.526   c1.013-0.439,1.479-1.617,1.04-2.63c-0.439-1.014-1.617-1.478-2.63-1.04l-15.74,6.82l7.038-30.258   c0.25-1.076-0.419-2.151-1.495-2.401c-1.073-0.248-2.151,0.419-2.401,1.495l-7.937,34.125c-0.003,0.014-0.003,0.029-0.006,0.043   c-0.015,0.071-0.021,0.144-0.028,0.217c-0.006,0.059-0.015,0.118-0.016,0.176c-0.001,0.064,0.008,0.128,0.014,0.192   c0.006,0.067,0.009,0.135,0.022,0.2c0.01,0.055,0.03,0.108,0.045,0.163c0.021,0.073,0.04,0.147,0.069,0.217   c0.005,0.013,0.007,0.027,0.013,0.04c0.009,0.021,0.025,0.036,0.035,0.056c0.066,0.14,0.148,0.27,0.244,0.391   c0.021,0.027,0.039,0.055,0.062,0.081c0.111,0.126,0.238,0.236,0.379,0.331c0.032,0.022,0.066,0.038,0.099,0.058   c0.117,0.07,0.243,0.127,0.376,0.172c0.04,0.013,0.077,0.029,0.118,0.04c0.024,0.006,0.045,0.018,0.069,0.024   c0.151,0.035,0.301,0.051,0.45,0.052c0.001,0,0.002,0.001,0.004,0.001c0,0,0,0,0,0c0,0,0,0,0,0c0.126,0,0.25-0.015,0.371-0.038   c0.034-0.007,0.068-0.018,0.102-0.026c0.091-0.022,0.179-0.049,0.265-0.084c0.018-0.007,0.037-0.01,0.055-0.017l14.33-6.21   l10.121,11.886c0.385,0.452,0.945,0.704,1.523,0.704c0.157,0,0.315-0.019,0.472-0.057c0.734-0.178,1.305-0.755,1.476-1.49   l3.798-16.331l4.44,16.4c0.194,0.717,0.769,1.267,1.493,1.429c0.146,0.033,0.292,0.048,0.438,0.048   c0.579,0,1.138-0.252,1.523-0.704l10.121-11.886l14.33,6.21c0.256,0.111,0.526,0.165,0.795,0.165c0.46,0,0.916-0.159,1.282-0.464   c0.58-0.484,0.838-1.253,0.667-1.989L90.839,81.209z"/><path d="M43.384,15.379c1.933,1.573,4.527,1.879,6.773,0.799c2.246-1.082,3.625-3.301,3.598-5.792   c-0.015-1.398,0.937-2.114,1.832-2.319c0.893-0.203,2.064,0.029,2.658,1.296c1.058,2.256,3.263,3.657,5.755,3.657   c2.493,0,4.698-1.401,5.755-3.657c0.594-1.267,1.762-1.5,2.658-1.296c0.896,0.205,1.847,0.921,1.832,2.319   c-0.026,2.491,1.353,4.71,3.599,5.792c0.89,0.428,1.834,0.638,2.771,0.638c1.427,0,2.834-0.488,4.001-1.438   c0.856-0.697,0.985-1.957,0.288-2.814c-0.699-0.857-1.958-0.986-2.814-0.288c-0.727,0.593-1.667,0.703-2.512,0.296   c-0.845-0.406-1.343-1.208-1.333-2.145c0.033-3.063-1.953-5.579-4.942-6.261c-2.989-0.682-5.869,0.724-7.17,3.498   C65.736,8.514,64.938,9.021,64,9.021s-1.736-0.506-2.134-1.355c-1.301-2.773-4.181-4.18-7.17-3.498   c-2.988,0.682-4.974,3.198-4.941,6.261c0.01,0.937-0.488,1.738-1.333,2.145c-0.847,0.406-1.786,0.294-2.513-0.296   c-0.857-0.697-2.115-0.568-2.813,0.288C42.398,13.422,42.528,14.682,43.384,15.379z"/><path d="M33.536,66.449c0.916-0.218,1.808,0.089,2.392,0.822c0.584,0.732,0.685,1.67,0.27,2.509c-0.49,0.99-0.085,2.189,0.905,2.68   c0.285,0.141,0.587,0.208,0.886,0.208c0.736,0,1.445-0.408,1.794-1.113c1.105-2.233,0.827-4.831-0.728-6.779   c-1.554-1.947-4.024-2.797-6.449-2.217c-1.365,0.326-2.274-0.441-2.672-1.267c-0.398-0.826-0.43-2.015,0.673-2.875   c1.966-1.532,2.843-3.994,2.288-6.423c-0.554-2.428-2.412-4.266-4.849-4.794c-1.369-0.297-1.856-1.382-1.856-2.299   s0.487-2.002,1.856-2.299c2.436-0.529,4.294-2.366,4.848-4.794c0.555-2.43-0.322-4.891-2.288-6.423   c-1.103-0.86-1.071-2.049-0.673-2.875c0.397-0.826,1.304-1.596,2.672-1.268c2.421,0.579,4.894-0.27,6.449-2.217   c1.554-1.948,1.833-4.546,0.728-6.779c-0.49-0.991-1.69-1.395-2.68-0.905c-0.99,0.49-1.395,1.69-0.905,2.68   c0.416,0.839,0.315,1.777-0.269,2.509c-0.585,0.733-1.479,1.039-2.393,0.822c-2.977-0.709-5.875,0.662-7.206,3.421   c-1.331,2.76-0.601,5.881,1.817,7.767c0.739,0.576,1.056,1.464,0.847,2.377s-0.88,1.577-1.797,1.776   c-2.996,0.649-5.008,3.145-5.008,6.208c0,3.064,2.013,5.559,5.008,6.208c0.917,0.199,1.589,0.863,1.797,1.776   s-0.108,1.802-0.847,2.378c-2.417,1.884-3.148,5.005-1.817,7.766C27.659,65.787,30.554,67.161,33.536,66.449z"/><path d="M77.844,73.621c-2.246,1.081-3.625,3.3-3.599,5.792c0.015,1.398-0.937,2.114-1.832,2.319   c-0.893,0.203-2.064-0.029-2.658-1.296c-1.058-2.256-3.263-3.657-5.756-3.657c-2.493,0-4.698,1.401-5.755,3.657   c-0.594,1.267-1.763,1.5-2.658,1.296c-0.896-0.205-1.847-0.921-1.832-2.319c0.026-2.491-1.353-4.71-3.599-5.792   c-2.244-1.08-4.839-0.773-6.772,0.799c-0.856,0.697-0.985,1.957-0.288,2.814s1.957,0.984,2.814,0.288   c0.727-0.593,1.666-0.704,2.511-0.296c0.845,0.407,1.344,1.208,1.333,2.145c-0.033,3.063,1.953,5.579,4.942,6.261   c0.502,0.115,1.001,0.17,1.491,0.17c2.421,0,4.597-1.361,5.679-3.668c0.397-0.848,1.195-1.354,2.133-1.354s1.736,0.506,2.134,1.355   c1.301,2.773,4.182,4.18,7.17,3.498c2.988-0.682,4.974-3.198,4.941-6.261c-0.01-0.937,0.488-1.739,1.333-2.145   c0.846-0.407,1.786-0.297,2.512,0.296c0.855,0.696,2.115,0.569,2.814-0.288c0.698-0.857,0.569-2.117-0.288-2.814   C82.684,72.848,80.089,72.541,77.844,73.621z"/><path d="M100.802,51.108c2.996-0.649,5.008-3.145,5.008-6.208c0-3.063-2.013-5.559-5.008-6.208   c-0.917-0.199-1.589-0.863-1.797-1.776c-0.208-0.913,0.108-1.801,0.847-2.377c2.417-1.884,3.147-5.005,1.817-7.766   c-1.33-2.759-4.228-4.133-7.207-3.422c-0.912,0.219-1.808-0.089-2.392-0.821c-0.584-0.732-0.685-1.67-0.27-2.509   c0.49-0.99,0.085-2.189-0.905-2.68c-0.988-0.49-2.189-0.085-2.68,0.905c-1.105,2.233-0.827,4.831,0.728,6.779   c1.555,1.948,4.024,2.795,6.449,2.217c1.362-0.328,2.274,0.441,2.672,1.268c0.398,0.826,0.43,2.015-0.673,2.875   c-1.967,1.533-2.843,3.994-2.288,6.423c0.554,2.428,2.412,4.266,4.849,4.794c1.369,0.297,1.856,1.382,1.856,2.299   s-0.487,2.002-1.856,2.299c-2.436,0.529-4.294,2.366-4.848,4.794c-0.556,2.43,0.321,4.891,2.288,6.423   c1.103,0.86,1.071,2.049,0.673,2.875c-0.398,0.827-1.309,1.595-2.673,1.267c-2.426-0.579-4.894,0.271-6.449,2.217   c-1.554,1.948-1.833,4.546-0.728,6.779c0.349,0.705,1.058,1.113,1.794,1.113c0.298,0,0.601-0.067,0.886-0.208   c0.99-0.49,1.395-1.69,0.905-2.68c-0.416-0.839-0.315-1.777,0.269-2.509c0.586-0.733,1.481-1.04,2.392-0.822   c2.98,0.713,5.876-0.662,7.207-3.421c1.33-2.761,0.6-5.882-1.817-7.766c-0.739-0.576-1.056-1.464-0.847-2.377   S99.886,51.307,100.802,51.108z"/><path d="M64,17.487c-15.127,0-27.435,12.297-27.435,27.413c0,15.116,12.307,27.413,27.435,27.413   c15.128,0,27.435-12.297,27.435-27.413C91.435,29.784,79.128,17.487,64,17.487z M64,68.313c-12.922,0-23.435-10.503-23.435-23.413   c0-12.91,10.513-23.413,23.435-23.413c12.922,0,23.435,10.503,23.435,23.413C87.435,57.81,76.922,68.313,64,68.313z"/><path d="M78.656,57.042v-6.263c0-3.23-2.63-5.859-5.863-5.859h-3.618c-0.573,0-1.119,0.246-1.498,0.675l-3.542,4.006l-3.547-4.007   c-0.379-0.429-0.925-0.674-1.498-0.674h-3.884c-3.233,0-5.864,2.628-5.864,5.859v6.309c0,0.053,0.012,0.102,0.016,0.154   c0.006,0.074,0.008,0.147,0.022,0.22c0.012,0.063,0.033,0.123,0.051,0.184c0.019,0.064,0.034,0.129,0.059,0.192   c0.024,0.06,0.057,0.115,0.087,0.172c0.031,0.059,0.058,0.119,0.095,0.175c0.038,0.058,0.084,0.109,0.128,0.163   c0.035,0.043,0.064,0.09,0.103,0.131c0.007,0.007,0.015,0.013,0.022,0.021c0.003,0.003,0.007,0.006,0.01,0.009   c3.721,3.84,8.713,5.956,14.064,5.956c5.366,0,10.372-2.126,14.098-5.988c0.052-0.054,0.091-0.114,0.135-0.172   c0.03-0.039,0.063-0.074,0.091-0.115c0.048-0.072,0.085-0.148,0.122-0.225c0.02-0.04,0.043-0.078,0.06-0.12   c0.034-0.083,0.057-0.169,0.079-0.255c0.01-0.04,0.025-0.078,0.033-0.119c0.02-0.104,0.028-0.208,0.032-0.314   c0.001-0.024,0.007-0.046,0.007-0.07v-0.021C78.656,57.057,78.657,57.05,78.656,57.042z M53.343,56.226v-5.447   c0-1.025,0.836-1.859,1.864-1.859h2.983l4.448,5.025c0.379,0.429,0.925,0.674,1.498,0.674h0c0.573,0,1.118-0.246,1.498-0.675   l4.443-5.024h2.716c1.027,0,1.863,0.834,1.863,1.859v5.447c-2.898,2.728-6.646,4.238-10.657,4.238   C59.988,60.464,56.241,58.954,53.343,56.226z"/><path d="M64.133,41.915c4.649,0,8.432-3.779,8.432-8.424c0-4.645-3.783-8.423-8.432-8.423s-8.432,3.779-8.432,8.423   C55.701,38.136,59.484,41.915,64.133,41.915z M64.133,29.068c2.444,0,4.432,1.984,4.432,4.423c0,2.439-1.988,4.424-4.432,4.424   s-4.432-1.984-4.432-4.424C59.701,31.052,61.689,29.068,64.133,29.068z"/></g><text x="0" y="143" fill="#000000" font-size="5px" font-weight="bold" font-family="'Helvetica Neue', Helvetica, Arial-Unicode, Arial, Sans-serif">Created by Symbolon</text><text x="0" y="148" fill="#000000" font-size="5px" font-weight="bold" font-family="'Helvetica Neue', Helvetica, Arial-Unicode, Arial, Sans-serif">from the Noun Project</text></svg>