<svg id="Layer_35" enable-background="new 0 0 64 64" height="512" viewBox="0 0 64 64" width="512" xmlns="http://www.w3.org/2000/svg"><path d="m60 48v14h-39l.85-2.55c1.04-.29 2.02-.7 2.94-1.21l2.4 1.19 4.25-4.24-1.2-2.4c.51-.92.92-1.9 1.21-2.94l2.55-.85v-1z" fill="#d3a06c"/><path d="m62 45v2c0 .55-.45 1-1 1h-1-26v-4h5 8 8 5 1c.55 0 1 .45 1 1z" fill="#dfb28b"/><path d="m55 44h-8l3-5.25 3.87-6.78c3.68 2.29 6.13 6.37 6.13 11.03v1z" fill="#4fc1e9"/><path d="m39 44h-5v-1c0-3.59 1.46-6.84 3.81-9.19.7-.7 1.48-1.32 2.32-1.84l3.87 6.78 3 5.25z" fill="#4fc1e9"/><path d="m47 35 3 3.75-3 5.25-3-5.25z" fill="#ccd1d9"/><path d="m53.87 31.97-3.87 6.78-3-3.75 4.28-4.27c.91.31 1.78.73 2.59 1.24z" fill="#e6e9ed"/><path d="m47 35-3 3.75-3.87-6.78c.81-.51 1.68-.93 2.6-1.24z" fill="#e6e9ed"/><path d="m51.28 30.73-4.28 4.27-4.27-4.27c1.34-.48 2.77-.73 4.27-.73s2.94.25 4.28.73z" fill="#f0d0b4"/><path d="m26 33.16-1.21.6c-.92-.51-1.9-.92-2.94-1.21l-.85-2.55h-3l2.81-4.91 4.06-7.12c3.68 2.29 6.13 6.37 6.13 11.03v7.37l-3.81-3.81z" fill="#e6e9ed"/><path d="m10 33.16-1.19-.6-3.81 3.81v-7.37c0-3.59 1.46-6.84 3.81-9.19.7-.7 1.48-1.32 2.32-1.84l4.06 7.12 2.81 4.91h-3l-.85 2.55c-1.04.29-2.02.7-2.94 1.21z" fill="#e6e9ed"/><circle cx="47" cy="23" fill="#f0d0b4" r="7"/><circle cx="18" cy="9" fill="#f0d0b4" r="7"/><path d="m16.79 16.06-1.6 9.03-4.06-7.12c1.67-1.05 3.59-1.72 5.66-1.91z" fill="#aab2bd"/><path d="m24.87 17.97-4.06 7.12-1.6-9.03c2.07.19 3.99.86 5.66 1.91z" fill="#aab2bd"/><path d="m19.21 16.06 1.6 9.03-2.81 4.91-2.81-4.91 1.6-9.03c.4-.04.8-.06 1.21-.06s.81.02 1.21.06z" fill="#ff826e"/><path d="m34 48v1l-2.55.85c-.29 1.04-.7 2.02-1.21 2.94l1.2 2.4-4.25 4.24-2.4-1.19c-.92.51-1.9.92-2.94 1.21l-.85 2.55h-3-3l-.85-2.55c-1.04-.29-2.02-.7-2.94-1.21l-2.4 1.19-4.25-4.24 1.2-2.4c-.51-.92-.92-1.9-1.21-2.94l-2.55-.85v-6l2.55-.85c.29-1.04.7-2.02 1.21-2.94l-1.2-2.4.44-.44 3.81-3.81 1.19.6 1.21.6c.92-.51 1.9-.92 2.94-1.21l.85-2.55h3 3l.85 2.55c1.04.29 2.02.7 2.94 1.21l1.21-.6 1.19-.6 3.81 3.81.44.44-1.2 2.4c.51.92.92 1.9 1.21 2.94l2.55.85v1z" fill="#ffc729"/><circle cx="18" cy="46" fill="#fcd770" r="10"/><path d="m29 46c0-6.065-4.935-11-11-11s-11 4.935-11 11 4.935 11 11 11 11-4.935 11-11zm-11 9c-4.962 0-9-4.037-9-9s4.038-9 9-9 9 4.037 9 9-4.038 9-9 9z"/><path d="m18 43c.551 0 1 .448 1 1h2c0-1.302-.839-2.402-2-2.816v-2.184h-2v2h-2v3c0 1.654 1.346 3 3 3 .551 0 1 .448 1 1v1h-1c-.551 0-1-.448-1-1h-2c0 1.302.839 2.402 2 2.816v2.184h2v-2h2v-3c0-1.654-1.346-3-3-3-.551 0-1-.448-1-1v-1z"/><path d="m11 45h2v2h-2z"/><path d="m23 45h2v2h-2z"/><path d="m61 43c0-6.199-4.053-11.462-9.646-13.298 2.191-1.428 3.646-3.897 3.646-6.702 0-4.411-3.589-8-8-8s-8 3.589-8 8c0 2.804 1.453 5.271 3.642 6.7-2.065.674-3.961 1.82-5.542 3.401-2.32 2.32-3.724 5.311-4.034 8.534l-.809-.27c-.244-.755-.544-1.482-.896-2.174l1.291-2.581-.652-.652v-6.958c0-6.199-4.053-11.462-9.646-13.298 2.191-1.428 3.646-3.897 3.646-6.702 0-4.411-3.589-8-8-8s-8 3.589-8 8c0 2.805 1.455 5.274 3.646 6.702-5.593 1.836-9.646 7.099-9.646 13.298v6.958l-.652.652 1.291 2.581c-.352.691-.652 1.419-.896 2.174l-2.743.914v7.441l2.743.914c.244.755.544 1.482.896 2.174l-1.291 2.582 5.262 5.262 2.581-1.29c.691.352 1.419.651 2.174.896l.914 2.742h3.721 3.721 39.279v-14c1.103 0 2-.897 2-2v-2c0-1.103-.897-2-2-2zm-2 0h-3v-4h-2v4h-5.277l5.474-9.58c2.91 2.192 4.803 5.665 4.803 9.58zm-12-12c.805 0 1.591.083 2.352.234l-2.352 2.352-2.356-2.356c.768-.152 1.556-.23 2.356-.23zm2.862 5.976-1.522-1.902 3.183-3.183c.336.137.663.291.983.458zm-4.202-1.902-1.522 1.902-2.649-4.636c.321-.166.647-.321.981-.457zm1.34 1.527 1.794 2.243-1.794 3.141-1.794-3.141zm-6-13.601c0-3.309 2.691-6 6-6s6 2.691 6 6-2.691 6-6 6-6-2.691-6-6zm-2.486 11.515c.403-.403.838-.762 1.286-1.1l5.477 9.585h-5.277v-4h-2v4h-3c0-3.205 1.248-6.219 3.514-8.485zm-8.514-5.515v4.958l-2.61-2.611-.39.196v-6.543h-2v7.543l-.191.096c-.691-.352-1.419-.651-2.174-.896l-.914-2.743h-1.998l5.474-9.58c2.91 2.192 4.803 5.665 4.803 9.58zm-17.506-10.651c.957-.497 1.984-.875 3.069-1.1l-.874 4.942zm5.142-1.331c.122-.003.241-.018.364-.018s.242.015.364.018l1.395 7.887-1.759 3.08-1.759-3.079zm3.674 5.173-.874-4.942c1.085.225 2.112.603 3.069 1.1zm-9.31-13.191c0-3.309 2.691-6 6-6s6 2.691 6 6-2.691 6-6 6-6-2.691-6-6zm-6 20c0-3.915 1.893-7.388 4.803-9.58l5.474 9.58h-1.998l-.915 2.743c-.755.244-1.482.544-2.174.896l-.19-.096v-7.543h-2v6.543l-.39-.195-2.61 2.61zm12 32h-2.279l-.789-2.365-.507-.146c-.968-.276-1.888-.655-2.734-1.127l-.461-.257-2.226 1.112-3.223-3.223 1.112-2.226-.257-.461c-.471-.847-.851-1.767-1.127-2.733l-.145-.508-2.364-.787v-4.559l2.365-.788.145-.508c.276-.967.656-1.887 1.127-2.733l.257-.461-1.112-2.226 3.223-3.224 2.225 1.113.461-.257c.846-.472 1.766-.851 2.734-1.127l.507-.146.789-2.363h4.559l.789 2.365.507.146c.968.276 1.888.655 2.734 1.127l.461.257 2.225-1.113 3.223 3.224-1.112 2.226.257.461c.471.847.851 1.767 1.127 2.733l.145.508 2.364.787v.279 4.279l-2.365.788-.145.508c-.276.967-.656 1.887-1.127 2.733l-.257.461 1.112 2.226-3.223 3.223-2.226-1.112-.461.257c-.846.472-1.766.851-2.734 1.127l-.507.146-.788 2.364zm41 0h-36.612l.248-.743c.755-.244 1.483-.544 2.174-.896l2.581 1.29 5.262-5.262-1.291-2.581c.352-.691.652-1.419.896-2.174l2.742-.913v-.721h24zm2-14h-26v-2h26z"/><path d="m55 57h2v2h-2z"/><path d="m51 57h2v2h-2z"/><path d="m47 57h2v2h-2z"/></svg>