<svg id="Layer_1" enable-background="new 0 0 64 64" height="512" viewBox="0 0 64 64" width="512" xmlns="http://www.w3.org/2000/svg"><g><g><path d="m18 15.5v-8c0-1.105.895-2 2-2 4.418 0 8 3.582 8 8v2z" fill="#db9e68"/></g><g><path d="m4 33.5h4v-10h-4c-1.105 0-2 .895-2 2v6c0 1.105.895 2 2 2z" fill="#db9e68"/></g><g><g><path d="m7 51.5c-1.654 0-3 1.121-3 2.5s1.346 2.5 3 2.5h32v-5z" fill="#dbdee3"/></g><g><path d="m61 49.5h-22c.552 0 1 .448 1 1s-.448 1-1 1h22c.552 0 1-.448 1-1s-.448-1-1-1z" fill="#5c76b2"/></g><g><path d="m61 56.5h-22c.552 0 1 .448 1 1s-.448 1-1 1h22c.552 0 1-.448 1-1s-.448-1-1-1z" fill="#5c76b2"/></g><g><path d="m39 58.5h-32c-2.757 0-5-2.019-5-4.5s2.243-4.5 5-4.5h32c.552 0 1 .448 1 1s-.448 1-1 1h-32c-1.654 0-3 1.121-3 2.5s1.346 2.5 3 2.5h32c.552 0 1 .448 1 1s-.448 1-1 1z" fill="#6fa4d8"/></g><g><path d="m39 51.5h22v5h-22z" fill="#b3b4b6"/></g></g><g><path d="m47 13.5h-26c-8.284 0-15 6.716-15 15 0 8.284 6.716 15 15 15h26c8.284 0 15-6.716 15-15 0-8.284-6.716-15-15-15z" fill="#eec78e"/></g><g><path d="m62 28.5c0 8.28-6.72 15-15 15h-26c-4.14 0-7.89-1.68-10.6-4.4-.5-.5-.97-1.03-1.4-1.6h27c11.05 0 20-8.95 20-20v-1c.57.43 1.1.9 1.6 1.4 2.72 2.71 4.4 6.46 4.4 10.6z" fill="#db9e68"/></g><g><path d="m27 21.5h20c1.105 0 2-.895 2-2 0-1.105-.895-2-2-2h-20c-1.105 0-2 .895-2 2 0 1.105.895 2 2 2z" fill="#55525b"/></g><g><circle cx="18" cy="23.5" fill="#55525b" r="2"/></g><g><path d="m29 49.5h-6c-1.105 0-2-.895-2-2v-4h10v4c0 1.105-.895 2-2 2z" fill="#db9e68"/></g><g><path d="m45 49.5h-6c-1.105 0-2-.895-2-2v-4h10v4c0 1.105-.895 2-2 2z" fill="#db9e68"/></g><path d="m38 5.5h-2c-4.971 0-9 4.029-9 9 0 4.97 4.029 9 9 9h2c4.971 0 9-4.029 9-9s-4.029-9-9-9z" fill="#f68820"/><g><circle cx="36" cy="14.5" fill="#fbbe18" r="9"/></g><path d="m36 13.5c-.827 0-1.5-.673-1.5-1.5s.673-1.5 1.5-1.5 1.5.673 1.5 1.5c0 .553.448 1 1 1s1-.447 1-1c0-1.58-1.059-2.903-2.5-3.337v-.663c0-.553-.448-1-1-1s-1 .447-1 1v.663c-1.441.434-2.5 1.757-2.5 3.337 0 1.93 1.57 3.5 3.5 3.5.827 0 1.5.673 1.5 1.5s-.673 1.5-1.5 1.5-1.5-.673-1.5-1.5c0-.553-.448-1-1-1s-1 .447-1 1c0 1.58 1.059 2.903 2.5 3.337v.663c0 .553.448 1 1 1s1-.447 1-1v-.663c1.441-.433 2.5-1.757 2.5-3.337 0-1.93-1.57-3.5-3.5-3.5z" fill="#f68820"/><g><path d="m29.5 21.5h15v4h-15z" fill="#eec78e"/></g></g></svg>