<?xml version="1.0" encoding="iso-8859-1"?>
<!-- Generator: Adobe Illustrator 18.1.1, SVG Export Plug-In . SVG Version: 6.00 Build 0)  -->
<svg version="1.1" id="Capa_1" xmlns="http://www.w3.org/2000/svg" xmlns:xlink="http://www.w3.org/1999/xlink" x="0px" y="0px"
	 viewBox="0 0 59.429 59.429" style="enable-background:new 0 0 59.429 59.429;" xml:space="preserve">
<g>
	<g>
		<circle style="fill:#010002;" cx="52.31" cy="11.504" r="4.731"/>
		<path style="fill:#010002;" d="M35.778,13.303c-0.834,0.666-1.191,1.895-0.17,2.813c4.045,3.629,8.66,6.25,13.864,7.717
			c0,0.26,0,0.519,0,0.778c-3.971,1.739-7.94,3.478-11.913,5.215c-1.035,0.455-1.201,1.383-0.865,2.178l-8.505,2.282l-0.223,0.005
			c0.001,0.019,0.001,0.038,0.001,0.056l-10.872,2.919l0.485,0.589c0.188,0.227,4.226,5.055,7.506,5.055
			c0.346,0,0.685-0.055,1.009-0.174c1.862-0.684,2.797-3.185,2.849-7.638l8.364-2.243c0.562,0.492,1.375,0.728,2.229,0.354
			c3.312-1.45,6.625-2.9,9.938-4.351c0,1.985,0,3.97,0,5.957l-6.328,0.438c-2.05,0.144-3.617,1.843-3.639,3.862
			c-0.091,0.291-0.143,0.599-0.128,0.918c0.144,3.105,0.043,6.264-0.317,10.24c-0.134,1.479,0.956,2.789,2.438,2.924
			c0.082,0.008,0.165,0.012,0.246,0.012c1.377,0,2.55-1.051,2.678-2.449c0.264-2.9,0.393-5.402,0.398-7.771l9.351-0.651
			c2.157-0.149,3.782-2.021,3.633-4.179c-0.009-0.127-0.024-0.25-0.045-0.373c0.021-0.182,0.035-0.367,0.035-0.563
			c0-5.202,0-10.405,0-15.608c0-4.729-6.442-5.331-7.988-1.753c-4.265-1.32-8.062-3.493-11.428-6.513
			c-0.302-0.27-0.623-0.414-0.948-0.479C32.085,7.246,22.96-0.821,15.245,0.068l0.168,1.459
			C22.192,0.744,30.551,7.925,35.778,13.303z M25.759,41.816c-2.032,0.744-5.313-2.24-6.917-4.004l9.118-2.447
			C27.882,39.092,27.127,41.314,25.759,41.816z"/>
		<path style="fill:#010002;" d="M14.806,23.607c0,0,1.929-1.116,3.115,0l-0.383-1.756c0.59-0.656,0.981-1.791,0.981-3.083
			c0-1.744-0.711-3.201-1.666-3.58V1.648h-0.979v13.541c-0.954,0.378-1.667,1.835-1.667,3.58c0,1.292,0.391,2.428,0.983,3.083
			L14.806,23.607z"/>
		<path style="fill:#010002;" d="M46.439,43.771v8.465h11.742v-8.465H46.439z M57.202,51.256h-9.785v-6.507h9.785V51.256z"/>
		<path style="fill:#010002;" d="M40.704,55.335c-1.34-0.688-4.454-1.879-6.752,0.42c-2.565,2.564-5.918,0.076-6.061-0.031
			l-0.062,0.082c-1.416-0.693-4.389-1.716-6.601,0.497c-2.566,2.565-5.917,0.077-6.06-0.03l-0.211,0.277l0.195-0.288
			c-0.043-0.03-4.425-2.95-7.417,0.041c-2.566,2.565-5.917,0.077-6.06-0.03l-0.427,0.562c0.026,0.021,1.766,1.317,3.811,1.317
			c1.041,0,2.16-0.336,3.174-1.35c2.558-2.557,6.299-0.107,6.516,0.038c0.102,0.075,1.803,1.312,3.801,1.312
			c1.041,0,2.161-0.336,3.174-1.35c2.578-2.578,6.362-0.064,6.522,0.043l0.038-0.059c0.706,0.373,1.793,0.818,2.988,0.818
			c1.041,0,2.16-0.339,3.174-1.353c2.222-2.222,5.334-0.665,6.256-0.123v3.301h17.476v-5.022H40.704V55.335z"/>
	</g>
</g>
<g>
</g>
<g>
</g>
<g>
</g>
<g>
</g>
<g>
</g>
<g>
</g>
<g>
</g>
<g>
</g>
<g>
</g>
<g>
</g>
<g>
</g>
<g>
</g>
<g>
</g>
<g>
</g>
<g>
</g>
</svg>
