<svg height="512pt" viewBox="0 -44 512.00884 512" width="512pt" xmlns="http://www.w3.org/2000/svg"><path d="m164.644531 274.804688c.070313 0 0 5.984374 0 0zm0 0" fill="#79bad4"/><path d="m501.785156 221.6875c0 41.851562-33.921875 75.785156-75.78125 75.785156h-79.484375v-22.667968h-18.839843v-94.757813c0-39.53125-32.167969-71.707031-71.707032-71.707031-19.160156 0-37.164062 7.46875-50.707031 21-13.542969 13.554687-21 31.558594-21 50.707031v64.070313h43.980469v-64.070313c0-7.40625 2.878906-14.363281 8.113281-19.601563 5.238281-5.234374 12.207031-8.125 19.613281-8.125 15.292969 0 27.726563 12.445313 27.726563 27.726563v94.757813h-119.054688v22.667968h-47.976562c-58.59375 0-106.160157-47.136718-106.878907-105.550781-.722656-58.253906 46.035157-106.808594 104.28125-108.1875 11.722657-.28125 23.027344 1.339844 33.640626 4.546875 23.808593-46.46875 72.1875-78.273438 128-78.273438 76.855468 0 139.625 60.332032 143.535156 136.214844 2.226562-.1875 4.476562-.308594 6.757812-.308594 41.859375 0 75.78125 33.925782 75.78125 75.773438zm0 0" fill="#e1f4fd"/><path d="m346.519531 317.957031v-43.148437h-181.871093c0 5.980468.070312 0 0 0v138.671875c60.972656 0 120.945312.367187 181.871093 0 0-3.925781-.261719 0 0 0 0-14.765625 0-11.214844 0-15.136719zm0 0" fill="#fcdd6d"/><path d="m255.976562 108.335938c-19.160156 0-37.164062 7.46875-50.707031 21-13.542969 13.554687-21 31.554687-21 50.707031v64.070312h43.980469v-64.070312c0-7.40625 2.878906-14.363281 8.113281-19.601563 5.238281-5.238281 12.207031-8.125 19.613281-8.125 15.292969 0 27.726563 12.445313 27.726563 27.726563v94.765625h43.980469v-94.765625c0-39.53125-32.167969-71.707031-71.707032-71.707031zm0 0" fill="#79bad4"/><path d="m255.976562 108.335938c-19.160156 0-37.164062 7.46875-50.707031 21-13.542969 13.554687-21 31.554687-21 50.707031v64.070312h43.980469v-64.070312c0-7.40625 2.878906-14.363281 8.113281-19.601563 5.238281-5.238281 12.207031-8.125 19.613281-8.125 15.292969 0 27.726563 12.445313 27.726563 27.726563v94.765625h43.980469v-94.765625c0-39.53125-32.167969-71.707031-71.707032-71.707031zm0 0" fill="#00e5be"/><path d="m289.488281 311.390625-46.554687 43.496094-17.371094-19.667969c-3.652344-4.140625-9.96875-4.53125-14.105469-.878906-4.136719 3.65625-4.53125 9.972656-.875 14.109375l24.175781 27.375c1.785157 2.023437 4.316407 3.238281 7.011719 3.367187.160157.007813.320313.011719.480469.011719 2.523438 0 4.96875-.960937 6.820312-2.691406l54.066407-50.511719c4.035156-3.769531 4.25-10.09375.480469-14.128906-3.769532-4.03125-10.09375-4.25-14.128907-.480469zm0 0"/><path d="m355.964844 354.4375c-1.558594-3.734375-5.304688-6.195312-9.347656-6.164062-4.183594.03125-8.007813 2.824218-9.34375 6.78125-1.339844 3.945312-.023438 8.449218 3.25 11.035156 3.285156 2.59375 7.929687 2.855468 11.488281.65625 4.121093-2.542969 5.78125-7.847656 3.953125-12.308594zm0 0"/><path d="m428.636719 135.941406c-8.84375-76.976562-74.125-135.93749975-152.710938-135.93749975-55.273437 0-105.519531 29.14843775-133.015625 76.60937475-9.429687-2.148437-19.117187-3.117187-28.863281-2.882812-63.664063 1.515625-114.820313 54.585937-114.0390625 118.308593.3789065 30.914063 12.7070315 59.914063 34.7070315 81.664063 22.019531 21.765625 51.203125 33.753906 82.167968 33.753906h37.988282v106.011719c0 5.519531 4.476562 9.996094 9.996094 9.996094 20.355468 0 40.597656.042968 60.804687.082031 19.8125.039063 39.960937.082031 60.242187.082031 20.226563 0 40.585938-.039062 60.867188-.164062 1.910156-.007813 3.695312-.550782 5.210938-1.488282.003906-.003906.007812-.007812.011718-.007812 0-.003906 0-.003906.003906-.003906.003907 0 .007813-.003906.011719-.003906 0-.003907 0-.003907 0-.003907.003907 0 .007813-.003906.011719-.003906 0-.003906 0-.003906.003906-.003906 0 0 .003906-.003907.007813-.003907 0-.003906.003906-.003906.003906-.003906.003906 0 .007813-.003906.007813-.003906.003906-.003906.003906-.003906.003906-.003906.003906 0 .007812-.003906.011718-.007813h.003907c0-.003906.003906-.003906.007812-.007812h.003907c.003906-.003907.007812-.003907.007812-.007813.003906 0 .003906 0 .007812-.003906 0 0 .003907 0 .003907-.003906.003906 0 .011719-.003906.015625-.007813 0 0 .003906 0 .003906-.003906.003906 0 .003906-.003906.007812-.003906.003907 0 .003907-.003907.007813-.003907 0 0 .003906-.003906.003906-.003906.003907 0 .007813-.003906.007813-.003906s.003906-.003906.003906-.003906c.003906 0 .007812-.003906.011719-.003906 0-.003907 0-.003907 0-.003907.003906 0 .007812-.003906.011719-.007812h.003906c.003906-.003907.003906-.003907.007812-.007813h.003906c.003907-.003906.007813-.007812.011719-.007812.003907-.003906.007813-.007813.011719-.007813h.003906c0-.003906.003906-.007812.007813-.007812l.003906-.003907c.003906 0 .007813-.003906.011719-.007812.511718-.335938.988281-.71875 1.425781-1.140625.003906-.003906.007813-.007813.007813-.007813.003906 0 .003906-.003906.003906-.003906l.007812-.007812s.003906-.003906.003906-.003906c.003907 0 .003907-.003907.007813-.003907 0-.003906 0-.003906.003906-.007812.003907 0 .003907 0 .003907-.003907.003906 0 .003906-.003906.007812-.003906v-.003906c1.820312-1.769531 2.964844-4.226562 3.019531-6.949219v-.003906c0-.003906 0-.007813 0-.011719v-.003906c0-.003906 0-.007812 0-.015625.003907-.007813.003907-.011719.003907-.015625v-.003906c0-.003906 0-.007813 0-.011719v-.003906c0-.003907 0-.007813 0-.011719s0-.003906 0-.003906c0-.003906 0-.007813 0-.015625 0 0 0 0 0-.003907 0-.003906 0-.007812 0-.011718s0-.003906 0-.007813c0-.003906 0-.003906 0-.007812 0-.003907 0-.007813 0-.007813 0-.003906 0-.003906 0-.007812s0-.007813 0-.007813c0-.003906 0-.007812 0-.007812 0-.003907 0-.007813 0-.011719 0 0 0-.003906 0-.007812 0 0 0 0 0-.003907 0-.007812 0-.019531 0-.027343v-15.132813c0-5.519531-4.476563-9.996094-9.996094-9.996094-5.519532 0-9.996094 4.476563-9.996094 9.996094v5.191406c-37.269531.175781-74.714844.101563-111.027344.027344-16.910156-.035156-33.847656-.066406-50.851562-.078125v-118.675781h161.878906v33.15625c0 5.515625 4.476562 9.992187 9.996094 9.992187 5.519531 0 9.996094-4.476562 9.996094-9.992187v-10.492188h69.492187c47.296875 0 85.773437-38.480469 85.773437-85.773437-.007812-46.492188-37.183593-84.460938-83.371093-85.742188zm-134.71875 128.863282v-84.769532c0-20.800781-16.925781-37.722656-37.722657-37.722656-10.074218 0-19.550781 3.925781-26.679687 11.054688-7.121094 7.121093-11.042969 16.589843-11.042969 26.667968v54.074219h-23.988281v-54.074219c0-16.476562 6.417969-31.976562 18.066406-43.636718 11.667969-11.65625 27.167969-18.074219 43.644531-18.074219 34.027344 0 61.710938 27.683593 61.710938 61.710937v84.769532zm132.308593 22.660156h-69.492187v-12.667969c0-5.519531-4.476563-9.992187-9.996094-9.992187h-8.84375v-84.769532c0-45.050781-36.652343-81.703125-81.699219-81.703125-21.8125 0-42.332031 8.496094-57.78125 23.929688-15.425781 15.441406-23.921874 35.957031-23.921874 57.773437v64.070313c0 5.519531 4.476562 9.992187 9.996093 9.992187h43.976563c5.519531 0 9.996094-4.472656 9.996094-9.992187v-64.070313c0-4.738281 1.84375-9.1875 5.1875-12.535156 3.355468-3.351562 7.808593-5.199219 12.542968-5.199219 9.777344 0 17.734375 7.957031 17.734375 17.734375v84.769532h-109.058593c-5.519532 0-9.996094 4.472656-9.996094 9.992187v12.667969h-37.992188c-25.667968 0-49.859375-9.933594-68.113281-27.980469-18.238281-18.027344-28.453125-42.070313-28.769531-67.691406-.648438-52.824219 41.753906-96.820313 94.523437-98.078125 10.394531-.242188 20.65625 1.140625 30.507813 4.128906 4.628906 1.398438 9.59375-.707031 11.796875-5.007812 23.019531-44.929688 68.65625-72.84375 119.101562-72.84375 68.328125 0 125.085938 51.230468 132.828125 118.136718-13.171875 3.335938-36.511718 12.3125-49.652344 35.53125-2.71875 4.804688-1.027343 10.902344 3.777344 13.621094 1.554688.882812 3.246094 1.300781 4.914063 1.300781 3.480469 0 6.867187-1.824219 8.707031-5.074219 13.195312-23.316406 42.570312-27.171874 43.941406-27.339843 2.070313-.179688 3.964844-.269531 5.78125-.269531 36.273438 0 65.785156 29.511718 65.785156 65.78125 0 36.277343-29.507812 65.785156-65.78125 65.785156zm0 0"/><path d="m106.242188 152.40625c-5.519532 0-9.996094 4.476562-9.996094 9.996094 0 5.519531 4.476562 9.996094 9.996094 9.996094 10.273437 0 18.636718 8.359374 18.636718 18.632812 0 5.519531 4.476563 9.996094 9.996094 9.996094s9.992188-4.476563 9.992188-9.996094c0-21.296875-17.324219-38.625-38.625-38.625zm0 0"/><path d="m78.132812 158.578125c-1.558593-3.738281-5.292968-6.195313-9.34375-6.164063-4.203124.03125-7.992187 2.8125-9.347656 6.773438-1.367187 4 .023438 8.570312 3.378906 11.140625 3.292969 2.527344 7.925782 2.726563 11.433594.511719 4.046875-2.558594 5.71875-7.839844 3.878906-12.261719zm0 0"/></svg>